<?xml version="1.0" encoding="UTF-8" standalone="no"?>
<svg
   id="svg1033"
   version="1.1"
   viewBox="0 0 7.9374395 7.2482606"
   height="27.395"
   width="29.999771"
   sodipodi:docname="ns-logo.svg"
   inkscape:version="1.3.2 (091e20e, 2023-11-25, custom)"
   xmlns:inkscape="http://www.inkscape.org/namespaces/inkscape"
   xmlns:sodipodi="http://sodipodi.sourceforge.net/DTD/sodipodi-0.dtd"
   xmlns="http://www.w3.org/2000/svg"
   xmlns:svg="http://www.w3.org/2000/svg"
   xmlns:rdf="http://www.w3.org/1999/02/22-rdf-syntax-ns#"
   xmlns:cc="http://creativecommons.org/ns#"
   xmlns:dc="http://purl.org/dc/elements/1.1/">
  <sodipodi:namedview
     id="namedview1"
     pagecolor="#ffffff"
     bordercolor="#999999"
     borderopacity="1"
     inkscape:showpageshadow="0"
     inkscape:pageopacity="0"
     inkscape:pagecheckerboard="0"
     inkscape:deskcolor="#d1d1d1"
     inkscape:document-units="mm"
     inkscape:zoom="5.8049593"
     inkscape:cx="39.965827"
     inkscape:cy="36.520497"
     inkscape:window-width="1366"
     inkscape:window-height="705"
     inkscape:window-x="-8"
     inkscape:window-y="-8"
     inkscape:window-maximized="1"
     inkscape:current-layer="svg1033" />
  <defs
     id="defs1027" />
  <metadata
     id="metadata1030">
    <rdf:RDF>
      <cc:Work
         rdf:about="">
        <dc:format>image/svg+xml</dc:format>
        <dc:type
           rdf:resource="http://purl.org/dc/dcmitype/StillImage" />
      </cc:Work>
    </rdf:RDF>
  </metadata>
  <g
     id="layer1"
     transform="matrix(0.37451353,0,0,0.37451353,-5.9023662,-5.917386)"
     style="fill:#000000;fill-opacity:1">
    <path
       d="m 28.686903,22.009201 c -0.793254,-0.0092 -1.583263,0.223655 -2.198124,0.734094 -2.0544,1.671237 -1.550645,4.22417 -0.523446,5.292129 1.222856,1.288078 2.761328,1.623886 4.432564,0.824951 l 4.110633,4.22702 c 0.351639,0.288231 0.775008,0.20794 1.019019,-0.02856 0.230663,-0.223563 0.293409,-0.731376 0.05706,-0.961961 l -4.0496,-4.168887 c 1.203093,-1.616746 0.847363,-3.207243 0.235934,-4.242594 -0.60111,-1.058154 -1.846569,-1.661772 -3.084042,-1.676192 z m -0.0026,1.452993 a 2.1764162,2.1764162 0 0 1 2.176433,2.176373 2.1764162,2.1764162 0 0 1 -2.176433,2.176434 2.1764162,2.1764162 0 0 1 -2.176373,-2.176434 2.1764162,2.1764162 0 0 1 2.176373,-2.176373 z m -2.284742,-7.662001 c -0.508977,0 -0.83691,0.545158 -0.926586,1.213656 -0.24457,-0.635887 -0.700401,-0.935771 -1.161011,-0.822617 -0.459337,0.112837 -0.670406,0.676493 -0.645949,1.263463 -0.171199,-0.285332 -1.004828,-0.766279 -1.345304,-0.439713 -0.441928,0.423873 0.04791,1.526534 0.512599,1.925998 -1.040512,0.325701 -2.222239,1.037584 -3.225278,2.121329 L 18.76631,20.337041 c -0.3747,-0.265168 -0.841621,-0.09958 -1.06391,0.183415 -0.214948,0.273643 -0.251507,0.730176 0.07131,1.041465 l 0.901368,0.787185 c -0.472838,0.798931 -1.033798,2.046454 -1.213152,3.61171 H 16.50665 c -0.423921,0 -0.742074,0.419899 -0.746516,0.779683 -0.0045,0.364064 0.344081,0.807357 0.735737,0.807357 h 0.937495 c -0.01631,0.929373 0.466472,3.052245 0.808871,3.85118 l -0.807486,0.466194 c -0.380464,0.207523 -0.430152,0.735666 -0.253587,1.049158 0.177383,0.31494 0.635638,0.524424 1.033395,0.328428 l 0.753576,-0.43511 c 0.783989,1.29127 2.054692,2.231 3.438199,2.346291 h 8.001528 c 1.014571,-0.06917 2.019558,-0.566048 3.057187,-1.834261 l -1.032325,-1.055778 c -0.253642,0.484227 -0.894829,1.056796 -1.240705,1.149032 0.161412,-0.391995 0.432347,-1.354673 0.524579,-1.885017 l -1.245559,-1.279669 c -0.02306,0.438108 -0.570581,2.761182 -0.939516,3.429874 h -2.396792 v -3.696831 c -0.507286,-0.16141 -1.047276,-0.456575 -1.462329,-0.894684 v 4.600153 H 23.28582 c -0.714809,-1.798557 -1.227822,-3.977601 -1.043356,-6.168153 0.161408,-2.059712 1.333072,-5.502266 3.431388,-6.862713 v 1.573736 c 0.363169,-0.334346 1.004482,-0.766708 1.462767,-0.890648 v -0.681637 c 0.144116,0.06341 0.592296,0.502951 0.592296,0.502951 0.530345,-0.155643 1.264655,-0.187825 1.939115,-0.02642 -0.317055,-0.455401 -0.953827,-1.059813 -0.953827,-1.059813 3.297354,0.945395 4.852832,3.115352 5.221764,6.389648 0.02446,0.497294 -0.05928,1.911504 -0.189717,2.425103 l 1.222864,1.255523 c 0.114131,-0.228269 0.415788,-2.115594 0.399487,-2.604736 h 0.827472 c 0.52175,-0.0082 0.758275,-0.447181 0.758179,-0.819277 -8.7e-5,-0.343806 -0.219939,-0.699601 -0.700931,-0.756665 H 35.342497 C 35.181085,24.580212 34.650779,23.175073 34.097376,22.298852 L 34.973588,21.5379 c 0.31129,-0.288231 0.232958,-0.826377 -0.01671,-1.090772 -0.241541,-0.255791 -0.695217,-0.353242 -1.052625,-0.07654 l -0.753072,0.655347 c -0.853162,-1.03763 -2.57746,-1.919261 -3.176981,-2.092202 0.489146,-0.480988 0.96832,-1.47504 0.482842,-1.923916 -0.341829,-0.316058 -1.120123,0.110636 -1.323934,0.444882 0.03459,-0.582225 -0.205858,-1.164803 -0.673502,-1.272102 -0.456663,-0.10478 -0.879813,0.197148 -1.133458,0.831256 -0.114132,-0.766324 -0.417609,-1.213656 -0.926587,-1.213656 z m -2.306697,4.276389 c -2.445712,2.380493 -4.555681,7.11234 -2.46867,13.340756 -1.46743,-0.554359 -3.091201,-4.303468 -2.759779,-6.694178 0.387077,-2.79217 1.152262,-5.537857 5.228449,-6.646578 z"
       style="fill:#000000;fill-opacity:1;stroke:none;stroke-width:0.0322818px;stroke-linecap:butt;stroke-linejoin:miter;stroke-opacity:1"
       id="path1082" />
  </g>
</svg>
