<?xml version="1.0" encoding="UTF-8" standalone="no"?>
<svg
   id="svg1033"
   version="1.1"
   viewBox="0 0 7.9374395 7.2482606"
   height="27.395"
   width="29.999771"
   sodipodi:docname="ns-logo_v2.svg"
   inkscape:version="1.3.2 (091e20e, 2023-11-25, custom)"
   xmlns:inkscape="http://www.inkscape.org/namespaces/inkscape"
   xmlns:sodipodi="http://sodipodi.sourceforge.net/DTD/sodipodi-0.dtd"
   xmlns="http://www.w3.org/2000/svg"
   xmlns:svg="http://www.w3.org/2000/svg"
   xmlns:rdf="http://www.w3.org/1999/02/22-rdf-syntax-ns#"
   xmlns:cc="http://creativecommons.org/ns#"
   xmlns:dc="http://purl.org/dc/elements/1.1/">
  <sodipodi:namedview
     id="namedview1"
     pagecolor="#ffffff"
     bordercolor="#999999"
     borderopacity="1"
     inkscape:showpageshadow="0"
     inkscape:pageopacity="0"
     inkscape:pagecheckerboard="0"
     inkscape:deskcolor="#d1d1d1"
     inkscape:document-units="mm"
     inkscape:zoom="11.609919"
     inkscape:cx="11.671055"
     inkscape:cy="20.758113"
     inkscape:window-width="1366"
     inkscape:window-height="705"
     inkscape:window-x="-8"
     inkscape:window-y="-8"
     inkscape:window-maximized="1"
     inkscape:current-layer="svg1033" />
  <defs
     id="defs1027" />
  <metadata
     id="metadata1030">
    <rdf:RDF>
      <cc:Work
         rdf:about="">
        <dc:format>image/svg+xml</dc:format>
        <dc:type
           rdf:resource="http://purl.org/dc/dcmitype/StillImage" />
      </cc:Work>
    </rdf:RDF>
  </metadata>
  <g
     id="layer1"
     transform="matrix(0.36696876,0,0,0.36625845,-5.7035185,-5.7070904)"
     style="fill:#000000;stroke:#000000;stroke-width:0.435893">
    <g
       id="path1082">
      <path
         style="color:#000000;stroke:none;-inkscape-stroke:none"
         d="m 28.686903,22.009201 c -0.793254,-0.0092 -1.583263,0.223655 -2.198124,0.734094 -2.0544,1.671237 -1.550645,4.22417 -0.523446,5.292129 1.222856,1.288078 2.761328,1.623886 4.432564,0.824951 l 4.110633,4.22702 c 0.351639,0.288231 0.775008,0.20794 1.019019,-0.02856 0.230663,-0.223563 0.293409,-0.731376 0.05706,-0.961961 l -4.0496,-4.168887 c 1.203093,-1.616746 0.847363,-3.207243 0.235934,-4.242594 -0.60111,-1.058154 -1.846569,-1.661772 -3.084042,-1.676192 z m -0.0026,1.452993 a 2.1764162,2.1764162 0 0 1 2.176433,2.176373 2.1764162,2.1764162 0 0 1 -2.176433,2.176434 2.1764162,2.1764162 0 0 1 -2.176373,-2.176434 2.1764162,2.1764162 0 0 1 2.176373,-2.176373 z m -2.284742,-7.662001 c -0.508977,0 -0.83691,0.545158 -0.926586,1.213656 -0.24457,-0.635887 -0.700401,-0.935771 -1.161011,-0.822617 -0.459337,0.112837 -0.670406,0.676493 -0.645949,1.263463 -0.171199,-0.285332 -1.004828,-0.766279 -1.345304,-0.439713 -0.441928,0.423873 0.04791,1.526534 0.512599,1.925998 -1.040512,0.325701 -2.222239,1.037584 -3.225278,2.121329 L 18.76631,20.337041 c -0.3747,-0.265168 -0.841621,-0.09958 -1.06391,0.183415 -0.214948,0.273643 -0.251507,0.730176 0.07131,1.041465 l 0.901368,0.787185 c -0.472838,0.798931 -1.033798,2.046454 -1.213152,3.61171 H 16.50665 c -0.423921,0 -0.742074,0.419899 -0.746516,0.779683 -0.0045,0.364064 0.344081,0.807357 0.735737,0.807357 h 0.937495 c -0.01631,0.929373 0.466472,3.052245 0.808871,3.85118 l -0.807486,0.466194 c -0.380464,0.207523 -0.430152,0.735666 -0.253587,1.049158 0.177383,0.31494 0.635638,0.524424 1.033395,0.328428 l 0.753576,-0.43511 c 0.783989,1.29127 2.054692,2.231 3.438199,2.346291 h 8.001528 c 1.014571,-0.06917 2.019558,-0.566048 3.057187,-1.834261 l -1.032325,-1.055778 c -0.253642,0.484227 -0.894829,1.056796 -1.240705,1.149032 0.161412,-0.391995 0.432347,-1.354673 0.524579,-1.885017 l -1.245559,-1.279669 c -0.02306,0.438108 -0.570581,2.761182 -0.939516,3.429874 h -2.396792 v -3.696831 c -0.507286,-0.16141 -1.047276,-0.456575 -1.462329,-0.894684 v 4.600153 H 23.28582 c -0.714809,-1.798557 -1.227822,-3.977601 -1.043356,-6.168153 0.161408,-2.059712 1.333072,-5.502266 3.431388,-6.862713 v 1.573736 c 0.363169,-0.334346 1.004482,-0.766708 1.462767,-0.890648 v -0.681637 c 0.144116,0.06341 0.592296,0.502951 0.592296,0.502951 0.530345,-0.155643 1.264655,-0.187825 1.939115,-0.02642 -0.317055,-0.455401 -0.953827,-1.059813 -0.953827,-1.059813 3.297354,0.945395 4.852832,3.115352 5.221764,6.389648 0.02446,0.497294 -0.05928,1.911504 -0.189717,2.425103 l 1.222864,1.255523 c 0.114131,-0.228269 0.415788,-2.115594 0.399487,-2.604736 h 0.827472 c 0.52175,-0.0082 0.758275,-0.447181 0.758179,-0.819277 -8.7e-5,-0.343806 -0.219939,-0.699601 -0.700931,-0.756665 H 35.342497 C 35.181085,24.580212 34.650779,23.175073 34.097376,22.298852 L 34.973588,21.5379 c 0.31129,-0.288231 0.232958,-0.826377 -0.01671,-1.090772 -0.241541,-0.255791 -0.695217,-0.353242 -1.052625,-0.07654 l -0.753072,0.655347 c -0.853162,-1.03763 -2.57746,-1.919261 -3.176981,-2.092202 0.489146,-0.480988 0.96832,-1.47504 0.482842,-1.923916 -0.341829,-0.316058 -1.120123,0.110636 -1.323934,0.444882 0.03459,-0.582225 -0.205858,-1.164803 -0.673502,-1.272102 -0.456663,-0.10478 -0.879813,0.197148 -1.133458,0.831256 -0.114132,-0.766324 -0.417609,-1.213656 -0.926587,-1.213656 z m -2.306697,4.276389 c -2.445712,2.380493 -4.555681,7.11234 -2.46867,13.340756 -1.46743,-0.554359 -3.091201,-4.303468 -2.759779,-6.694178 0.387077,-2.79217 1.152262,-5.537857 5.228449,-6.646578 z"
         id="path1" />
      <path
         style="color:#000000;stroke:none;-inkscape-stroke:none"
         d="m 26.400391,15.582031 c -0.332302,0 -0.613521,0.187468 -0.798829,0.447266 -0.104549,0.146577 -0.13404,0.35366 -0.193359,0.539062 -0.101923,-0.146508 -0.177964,-0.333734 -0.310547,-0.425781 -0.246886,-0.171402 -0.548091,-0.233302 -0.83789,-0.162109 -0.303805,0.07463 -0.523716,0.302202 -0.650391,0.572265 -0.07421,0.15821 -0.06986,0.350651 -0.09375,0.533203 -0.125793,-0.09508 -0.211561,-0.213017 -0.373047,-0.28125 -0.153993,-0.06507 -0.318792,-0.11247 -0.486328,-0.117187 -0.167536,-0.0047 -0.349857,0.03903 -0.486328,0.169922 -0.159066,0.152567 -0.227308,0.363138 -0.238281,0.570312 -0.01097,0.207175 0.02879,0.418889 0.09766,0.626953 0.10366,0.313189 0.3043,0.559021 0.498047,0.791016 -0.96552,0.34683 -1.996822,0.988166 -2.916016,1.931641 l -0.710937,-0.611328 -0.0078,-0.0078 c -0.239656,-0.1696 -0.521041,-0.203753 -0.763672,-0.148437 -0.242631,0.05532 -0.453477,0.193399 -0.597656,0.376953 -0.280272,0.356804 -0.313584,0.941127 0.0918,1.332031 l 0.0039,0.0039 0.78125,0.683594 c -0.444255,0.782288 -0.920924,1.918545 -1.117187,3.335937 h -0.785157 c -0.283919,0 -0.527048,0.14074 -0.693359,0.328125 -0.166311,0.187386 -0.26653,0.424896 -0.269531,0.667969 -0.0031,0.252668 0.105019,0.493547 0.271484,0.685547 0.166465,0.192 0.403586,0.341797 0.681641,0.341797 h 0.765625 C 17.293649,28.7689 17.66254,30.415696 18,31.287109 l -0.669922,0.386719 c -0.254964,0.13907 -0.397718,0.387233 -0.445312,0.634766 -0.04759,0.247532 -0.01083,0.50293 0.107421,0.71289 0.235868,0.418779 0.805837,0.668563 1.31836,0.416016 l 0.0059,-0.002 0.613281,-0.355469 c 0.820449,1.24357 2.058777,2.174333 3.458985,2.291016 h 0.0078 8.019532 0.0059 c 1.075491,-0.07332 2.147302,-0.614064 3.210937,-1.914063 l 0.125,-0.15039 -1.378906,-1.410157 -0.138672,0.265625 c -0.108178,0.206523 -0.320552,0.460425 -0.541015,0.66211 -0.05758,0.05268 -0.08846,0.05525 -0.146485,0.09961 0.14506,-0.460989 0.310686,-0.967099 0.378907,-1.359375 l 0.01953,-0.109375 -1.671875,-1.716797 -0.02539,0.498047 c -0.0039,0.07441 -0.04209,0.308036 -0.101562,0.59375 -0.05948,0.285715 -0.14033,0.63591 -0.232422,0.992188 -0.17246,0.667201 -0.388278,1.32092 -0.542969,1.638671 h -2.023437 v -3.638671 l -0.152344,-0.04883 C 26.724458,29.621755 26.213835,29.342574 25.830078,28.9375 l -0.375,-0.398438 V 33.46875 H 23.449219 C 22.76971,31.717968 22.282626,29.631381 22.458984,27.537109 v -0.002 c 0.07823,-0.998335 0.408058,-2.357076 0.972657,-3.621094 0.493606,-1.10508 1.196935,-2.075594 2.023437,-2.748046 v 1.560546 l 0.367188,-0.335937 c 0.337989,-0.311164 0.986652,-0.737827 1.371093,-0.841797 l 0.16211,-0.04297 v -0.396484 c 0.115141,0.105262 0.220703,0.207031 0.220703,0.207031 l 0.0918,0.08984 0.123047,-0.03711 c 0.485974,-0.142622 1.192912,-0.174983 1.826171,-0.02344 l 0.556641,0.132813 -0.326172,-0.46875 c -0.108502,-0.155847 -0.172537,-0.190882 -0.310547,-0.345704 2.566217,1.041812 3.856483,2.942854 4.181641,5.820313 0.02123,0.459062 -0.07164,1.910728 -0.183594,2.351562 l -0.0293,0.117188 1.521485,1.5625 0.136718,-0.273438 c 0.03254,-0.06508 0.04581,-0.121107 0.06641,-0.201171 0.02059,-0.08006 0.04193,-0.176387 0.06445,-0.28711 0.04505,-0.221445 0.09443,-0.497826 0.138672,-0.78125 0.07467,-0.478411 0.116448,-0.895739 0.128906,-1.214844 h 0.634766 0.002 c 0.321458,-0.0051 0.582173,-0.153057 0.742187,-0.355468 0.160014,-0.202411 0.230529,-0.449391 0.230469,-0.681641 -1.11e-4,-0.43668 -0.314054,-0.904021 -0.892578,-0.972656 l -0.01367,-0.002 h -0.771484 c -0.182066,-1.276111 -0.635234,-2.510287 -1.148438,-3.375 l 0.773438,-0.671875 0.002,-0.002 c 0.211948,-0.196249 0.286276,-0.473043 0.271484,-0.726563 -0.01479,-0.25352 -0.109644,-0.496236 -0.277344,-0.673828 -0.316099,-0.334748 -0.896162,-0.444174 -1.34375,-0.09766 l -0.0059,0.002 -0.621094,0.541015 c -0.442629,-0.483206 -1.00207,-0.932214 -1.564453,-1.273437 -0.526041,-0.319174 -0.952423,-0.498342 -1.298828,-0.625 0.198731,-0.2442 0.405049,-0.504707 0.507812,-0.816406 0.0669,-0.202933 0.103636,-0.41024 0.08398,-0.615235 -0.01965,-0.204994 -0.103646,-0.410926 -0.267578,-0.5625 -0.133676,-0.123597 -0.309489,-0.168992 -0.472657,-0.167968 -0.163167,0.001 -0.321993,0.043 -0.472656,0.105468 -0.160691,0.06662 -0.253081,0.193459 -0.380859,0.294922 -0.02546,-0.184051 -0.02111,-0.377809 -0.09961,-0.537109 -0.134758,-0.273465 -0.362189,-0.503163 -0.671875,-0.574219 -0.287107,-0.06588 -0.582001,3.42e-4 -0.820312,0.173828 -0.125541,0.09139 -0.199105,0.274312 -0.296875,0.416016 -0.06149,-0.197407 -0.09805,-0.425796 -0.205078,-0.570313 -0.186114,-0.251314 -0.466818,-0.408203 -0.785156,-0.408203 z m 0,0.435547 c 0.190638,0 0.314144,0.06849 0.435546,0.232422 0.121403,0.163934 0.221561,0.435441 0.275391,0.796875 l 0.117188,0.796875 0.300781,-0.748047 c 0.115731,-0.289325 0.265174,-0.487846 0.416015,-0.597656 0.150842,-0.10981 0.295289,-0.14242 0.464844,-0.103516 0.157958,0.03624 0.285177,0.151592 0.378906,0.341797 0.09373,0.190205 0.14222,0.448106 0.126954,0.705078 l 0.402343,0.126953 c 0.05917,-0.09703 0.283582,-0.28594 0.507813,-0.378906 0.112116,-0.04648 0.225276,-0.07173 0.310547,-0.07227 0.08527,-5.35e-4 0.134636,0.0183 0.171875,0.05273 0.07881,0.07286 0.117147,0.160535 0.128906,0.283203 0.01176,0.122668 -0.0092,0.275687 -0.0625,0.4375 -0.106695,0.323626 -0.336313,0.67586 -0.552734,0.888672 l -0.267579,0.259765 0.359375,0.103516 c 0.258461,0.07456 0.841915,0.335479 1.441407,0.699219 0.599492,0.363739 1.226887,0.835699 1.626953,1.322265 l 0.142578,0.173829 0.912109,-0.794922 c 0.267228,-0.206886 0.594737,-0.122146 0.761719,0.05469 0.08197,0.0868 0.151188,0.244729 0.160156,0.398438 0.0089,0.152066 -0.03379,0.286979 -0.130859,0.378906 l -1.015625,0.882812 0.101562,0.158204 c 0.530796,0.840425 1.055878,2.226468 1.212891,3.572265 l 0.02148,0.19336 h 1.082032 c 0.380119,0.04679 0.505796,0.289065 0.505859,0.539062 3.6e-5,0.139846 -0.04806,0.298003 -0.136719,0.410156 -0.08866,0.112154 -0.205959,0.188259 -0.40625,0.191407 h -1.050781 l 0.0078,0.224609 c 0.0063,0.190516 -0.06163,0.803208 -0.148438,1.359375 -0.0434,0.278084 -0.08971,0.547852 -0.132812,0.759766 -0.0041,0.02013 -0.0077,0.03175 -0.01172,0.05078 l -0.888672,-0.91211 c 0.132309,-0.629192 0.210717,-1.83983 0.185547,-2.351562 l -0.002,-0.0078 v -0.0059 C 33.77698,23.108076 32.138266,20.829975 28.773437,19.865234 l -0.208984,0.367188 c 0,0 0.349666,0.385652 0.628906,0.697265 -0.483795,-0.04783 -0.969007,-0.07922 -1.371093,0.01953 -0.03723,-0.0361 -0.08714,-0.08506 -0.189454,-0.177735 -0.06694,-0.06063 -0.139311,-0.123235 -0.207031,-0.177734 -0.06772,-0.0545 -0.118301,-0.100256 -0.201172,-0.136719 l -0.30664,-0.132812 v 0.902343 c -0.362379,0.132797 -0.705701,0.373679 -1.025391,0.621094 v -1.591797 l -0.337891,0.216797 c -1.10403,0.715801 -1.935321,1.951376 -2.521484,3.263672 -0.585879,1.311662 -0.924432,2.702491 -1.007812,3.763672 -0.188316,2.236262 0.334689,4.446136 1.058593,6.267578 l 0.05469,0.136719 h 2.751953 v -4.4375 c 0.327976,0.260182 0.667405,0.497885 1.025391,0.628906 v 3.800781 h 2.74414 l 0.0625,-0.113281 c 0.214008,-0.387887 0.431565,-1.125883 0.619141,-1.851562 0.09379,-0.36284 0.177084,-0.717743 0.238281,-1.011719 0.01956,-0.09395 0.02028,-0.131998 0.03516,-0.210938 l 0.859375,0.88086 c -0.101343,0.521832 -0.346015,1.404222 -0.484375,1.740234 l -0.167968,0.40625 0.425781,-0.113281 c 0.249028,-0.06641 0.496084,-0.247848 0.746094,-0.476563 0.178773,-0.163546 0.314634,-0.363715 0.451171,-0.558593 l 0.705079,0.724609 c -0.952549,1.099583 -1.847715,1.559873 -2.751954,1.623047 h -7.980468 c -1.294559,-0.110356 -2.510742,-1.00012 -3.263672,-2.240235 l -0.111328,-0.183593 -0.923828,0.535156 c -0.282991,0.139444 -0.62915,-0.02913 -0.748047,-0.240234 -0.05831,-0.103532 -0.08682,-0.269224 -0.05859,-0.416016 0.02822,-0.146792 0.101063,-0.265531 0.226562,-0.333984 l 0.002,-0.002 0.978515,-0.564453 -0.07617,-0.177734 c -0.316554,-0.738631 -0.807852,-2.913611 -0.792968,-3.761719 l 0.0039,-0.220703 h -1.158203 c -0.113601,0 -0.246948,-0.07074 -0.351563,-0.191406 -0.104614,-0.120662 -0.167392,-0.283136 -0.166015,-0.394531 0.0014,-0.116711 0.0603,-0.270303 0.160156,-0.382813 0.09986,-0.11251 0.227187,-0.181641 0.367187,-0.181641 h 1.150391 l 0.02148,-0.193359 c 0.174994,-1.527203 0.724877,-2.747019 1.185547,-3.525391 l 0.0918,-0.15625 -1.029297,-0.90039 c -0.240252,-0.231673 -0.202358,-0.559519 -0.05273,-0.75 0.07811,-0.09944 0.213439,-0.186815 0.353515,-0.21875 0.140077,-0.03194 0.279019,-0.01549 0.414063,0.08008 l 0.984375,0.849609 0.142578,-0.154297 c 0.977392,-1.056034 2.131855,-1.749791 3.130859,-2.0625 l 0.375,-0.117187 -0.298828,-0.255859 c -0.185877,-0.159788 -0.418372,-0.516386 -0.53125,-0.857422 -0.05644,-0.170518 -0.08312,-0.337479 -0.07617,-0.46875 0.007,-0.131272 0.04162,-0.217975 0.103516,-0.277344 0.03377,-0.03239 0.08395,-0.05136 0.173828,-0.04883 0.08988,0.0025 0.209752,0.03397 0.328125,0.08398 0.236747,0.100032 0.472761,0.304211 0.50586,0.359375 l 0.404296,-0.121094 c -0.01102,-0.264529 0.03547,-0.520315 0.123047,-0.707031 0.08758,-0.186715 0.20189,-0.297731 0.357422,-0.335937 0.170811,-0.04196 0.329005,-0.01157 0.486328,0.09766 0.157324,0.109223 0.309802,0.305483 0.419922,0.591797 l 0.419922,-0.04883 c 0.04122,-0.307289 0.139256,-0.579861 0.267578,-0.759766 0.128322,-0.179905 0.266684,-0.265625 0.44336,-0.265625 z m -1.552735,3.626953 -0.8125,0.222656 c -2.078726,0.565413 -3.345674,1.565029 -4.123047,2.783204 -0.777372,1.218174 -1.068785,2.637161 -1.263672,4.042968 -0.174486,1.258657 0.160996,2.816954 0.720704,4.150391 0.559707,1.333437 1.316934,2.452155 2.177734,2.777344 l 0.429687,0.162109 -0.146484,-0.435547 c -2.062383,-6.154918 0.0269,-10.79173 2.414063,-13.115234 z M 23.396484,20.625 c -2.147843,2.486366 -3.709418,6.738838 -2.099609,12.232422 -0.527627,-0.424484 -1.098309,-1.166122 -1.525391,-2.183594 -0.536178,-1.277382 -0.848341,-2.787871 -0.691406,-3.919922 0.19219,-1.386359 0.478185,-2.737298 1.199219,-3.867187 0.608413,-0.953408 1.645908,-1.706137 3.117187,-2.261719 z m 5.292969,1.166016 c -0.836734,-0.0097 -1.677799,0.236122 -2.337891,0.783203 -1.076106,0.875404 -1.495442,2.003338 -1.498046,3.041015 -0.0026,1.037678 0.39367,1.986628 0.955078,2.570313 1.227078,1.291613 2.832,1.618183 4.503906,0.898437 l 4.048828,4.164063 0.0098,0.0078 c 0.433317,0.355181 0.991817,0.266011 1.308593,-0.04102 0.167459,-0.162304 0.250825,-0.387699 0.269532,-0.617188 0.01871,-0.229488 -0.03057,-0.478379 -0.212891,-0.65625 l -3.960937,-4.080078 c 1.082597,-1.619527 0.80099,-3.238916 0.185546,-4.283203 l -0.002,-0.002 C 31.311096,22.438106 29.995137,21.80623 28.689453,21.791016 Z m -0.0059,0.435546 c 1.168316,0.01361 2.343608,0.589722 2.898437,1.566407 v 0.002 l 0.002,0.002 c 0.580554,0.983069 0.925331,2.456636 -0.224609,4.001953 L 31.25,27.947266 35.429687,32.25 l 0.002,0.002 c 0.05403,0.05271 0.09328,0.172593 0.08203,0.310547 -0.01125,0.137954 -0.07547,0.278585 -0.138672,0.339844 -0.171245,0.165974 -0.458555,0.236905 -0.728516,0.01563 l -4.201172,-4.322266 -0.140625,0.06836 c -1.602836,0.766237 -3.008607,0.456302 -4.18164,-0.779296 -0.46579,-0.484273 -0.836303,-1.345945 -0.833985,-2.269532 0.0023,-0.923586 0.3596,-1.907293 1.337891,-2.703125 l 0.002,-0.002 c 0.569331,-0.472641 1.305755,-0.692279 2.054688,-0.683594 z m 0,1.017579 c -1.319751,2.6e-5 -2.394505,1.07478 -2.394532,2.394531 -10e-6,1.319776 1.074755,2.394505 2.394532,2.394531 1.319802,10e-6 2.394542,-1.074729 2.394531,-2.394531 -2.6e-5,-1.319776 -1.074755,-2.394542 -2.394531,-2.394531 z m 0,0.435546 c 1.084204,-8e-6 1.958963,0.874781 1.958984,1.958985 9e-6,1.084226 -0.874759,1.958993 -1.958984,1.958984 -1.084205,-2.1e-5 -1.95704,-0.87478 -1.957032,-1.958984 2.2e-5,-1.084183 0.872849,-1.958963 1.957032,-1.958985 z"
         id="path2" />
    </g>
  </g>
</svg>
